<svg height="512" viewBox="0 0 58 58" width="512" xmlns="http://www.w3.org/2000/svg">
    <g id="Page-1" fill="none" fill-rule="evenodd">
        <g id="013---Sharp-Left-Arrow" fill="#0065ff" fill-rule="nonzero">
            <path id="Shape"
                  d="m51.9158 1.9324c-3.6868737-1.87701864-8.1104038-1.55558952-11.4872.8347l-28.1886 19.9529-3.46-4.89c-.21158032-.3045561-.57626998-.4644854-.94362967-.4138151-.3673597.0506703-.67513724.3033537-.79637033.6538151l-6.99 19.61c-.09932525.3038472-.04851452.6368039.13691622.897196s.48346167.4172981.80308378.422804l5.41-.01 12.01-.01h3.43c.3715815-.0008312.7117443-.2086219.8821144-.5388454s.1425612-.7278595-.0721144-1.0311546l-3.47-4.89 26.82-18.99v43.47c.0015928.5516236.4483764.9984072 1 1h10c.5516236-.0015928.9984072-.4483764 1-1v-45.1426c.0000229-4.1893277-2.3508719-8.02428233-6.0842-9.925z"/>
        </g>
    </g>
</svg>
